<?xml version="1.0" encoding="UTF-8" standalone="no"?>
<!-- Created with Inkscape (http://www.inkscape.org/) -->

<svg
   width="24"
   height="24"
   viewBox="0 0 9 9"
   version="1.1"
   id="svg1"
   xmlns="http://www.w3.org/2000/svg"
   xmlns:svg="http://www.w3.org/2000/svg">
  <defs
     id="defs1" />
  <g
     id="layer1"
     transform="translate(-12.75,-58)">
    <path
       id="text1"
       style="fill:currentColor;"
       d="m 12.862087,65.096655 q -0.01692,-1.074454 -0.0423,-1.835877 -0.01692,-0.769884 -0.03384,-1.294421 -0.01692,-0.524536 -0.0423,-0.829105 -0.01692,-0.31303 -0.02538,-0.499156 -0.0085,-0.186126 -0.01692,-0.262268 -0.0085,-0.0846 -0.0085,-0.160745 0,-0.143825 0.0846,-0.177666 0.0846,-0.0423 0.211506,-0.0423 0.143825,0 0.219967,0.05922 0.0846,0.05076 0.0846,0.279188 l 0.160745,4.551622 q 0.0085,0 0.0846,-0.01692 0.07614,-0.01692 0.177665,-0.05076 0.101523,-0.03384 0.211507,-0.06768 0.109983,-0.0423 0.177665,-0.07614 0.101523,-0.0423 0.30457,-0.135364 0.203046,-0.09306 0.456854,-0.211507 0.253808,-0.118444 0.532997,-0.245348 0.287649,-0.135364 0.541457,-0.245347 0.262268,-0.118444 0.456854,-0.211507 0.203046,-0.101523 0.304569,-0.143824 h 0.101523 q 0.05076,0 0.101524,0.0085 0.05076,0.0085 0.0846,0.0423 0.03384,0.03384 0.0423,0.101523 0,0.0846 -0.03384,0.143825 -0.02538,0.05922 -0.07614,0.135364 -0.499155,0.09306 -0.98139,0.338411 -0.473775,0.245347 -0.94755,0.507615 -0.465315,0.262269 -0.94755,0.465315 -0.473774,0.203046 -0.97293,0.203046 -0.211506,0 -0.211506,-0.32995 z m 5.262283,-0.06768 q 0.01692,-0.0846 0.211507,-0.160745 0.194586,-0.07614 0.482235,-0.160745 0.287649,-0.0846 0.63452,-0.186126 0.346871,-0.101523 0.668361,-0.228427 0.32149,-0.126904 0.583758,-0.287649 0.270728,-0.160745 0.397632,-0.372252 0,-0.126904 -0.169205,-0.194586 -0.160745,-0.06768 -0.439934,-0.109983 -0.270728,-0.05076 -0.626059,-0.07614 -0.346871,-0.03384 -0.719123,-0.0846 -0.363791,-0.05922 -0.719122,-0.135364 -0.346871,-0.0846 -0.62606,-0.228428 -0.270728,-0.152284 -0.439933,-0.380711 -0.160745,-0.228428 -0.160745,-0.558378 0,-0.32995 0.143824,-0.65144 0.143825,-0.32995 0.380712,-0.63452 0.245348,-0.304569 0.549917,-0.566838 0.31303,-0.262268 0.65144,-0.456854 0.338411,-0.194586 0.668361,-0.304569 0.338411,-0.109984 0.62606,-0.109984 0.07614,0 0.160745,0 0.0846,-0.0085 0.143824,0.0085 0.06768,0.0085 0.109984,0.05922 0.0423,0.05076 0.0423,0.152285 0,0.245348 -0.160745,0.355331 -0.160745,0.101523 -0.389172,0.101523 l -0.32995,-0.236887 q -0.194586,0 -0.431474,0.109983 -0.228427,0.109984 -0.473775,0.29611 -0.236887,0.177665 -0.465314,0.414553 -0.228427,0.236887 -0.406093,0.490695 -0.169205,0.253808 -0.279189,0.507616 -0.101523,0.253808 -0.101523,0.456854 0,0.296109 0.160745,0.482235 0.169206,0.177666 0.439934,0.287649 0.279189,0.101523 0.63452,0.152285 0.355331,0.05076 0.719122,0.0846 0.363792,0.03384 0.719123,0.06768 0.355331,0.02538 0.626059,0.101524 0.279189,0.07614 0.439934,0.203046 0.169205,0.126904 0.169205,0.346871 0.09306,0.135364 -0.0423,0.313029 -0.126904,0.169206 -0.406093,0.346871 -0.270728,0.169206 -0.65144,0.346871 -0.372252,0.169205 -0.769884,0.31303 -0.397633,0.135364 -0.769884,0.236887 -0.372252,0.09306 -0.63452,0.118444 -0.07614,0 -0.135364,-0.05076 -0.05076,-0.05076 -0.01692,-0.177665 z" />
  </g>
</svg>
